<svg width="22" height="23" viewBox="0 0 22 23" fill="none" xmlns="http://www.w3.org/2000/svg">
<path d="M6.02632 8.8421H7.13158C7.42471 8.8421 7.70584 8.72566 7.91312 8.51838C8.12039 8.3111 8.23684 8.02998 8.23684 7.73684C8.23684 7.44371 8.12039 7.16258 7.91312 6.9553C7.70584 6.74803 7.42471 6.63158 7.13158 6.63158H6.02632C5.73318 6.63158 5.45205 6.74803 5.24478 6.9553C5.0375 7.16258 4.92105 7.44371 4.92105 7.73684C4.92105 8.02998 5.0375 8.3111 5.24478 8.51838C5.45205 8.72566 5.73318 8.8421 6.02632 8.8421ZM10.4474 15.4737H6.02632C5.73318 15.4737 5.45205 15.5901 5.24478 15.7974C5.0375 16.0047 4.92105 16.2858 4.92105 16.5789C4.92105 16.8721 5.0375 17.1532 5.24478 17.3605C5.45205 17.5678 5.73318 17.6842 6.02632 17.6842H10.4474C10.7405 17.6842 11.0216 17.5678 11.2289 17.3605C11.4362 17.1532 11.5526 16.8721 11.5526 16.5789C11.5526 16.2858 11.4362 16.0047 11.2289 15.7974C11.0216 15.5901 10.7405 15.4737 10.4474 15.4737ZM10.4474 11.0526H6.02632C5.73318 11.0526 5.45205 11.1691 5.24478 11.3764C5.0375 11.5836 4.92105 11.8648 4.92105 12.1579C4.92105 12.451 5.0375 12.7322 5.24478 12.9394C5.45205 13.1467 5.73318 13.2632 6.02632 13.2632H10.4474C10.7405 13.2632 11.0216 13.1467 11.2289 12.9394C11.4362 12.7322 11.5526 12.451 11.5526 12.1579C11.5526 11.8648 11.4362 11.5836 11.2289 11.3764C11.0216 11.1691 10.7405 11.0526 10.4474 11.0526ZM18.0958 8.15684C18.1804 7.95556 18.2036 7.73372 18.1622 7.51931C18.1209 7.3049 18.017 7.10753 17.8637 6.9521L11.2321 0.320526C11.1407 0.234555 11.0363 0.163668 10.9226 0.110526C10.8896 0.10584 10.8561 0.10584 10.8232 0.110526L10.5137 0H3.81579C2.93639 0 2.093 0.349341 1.47117 0.971172C0.849341 1.593 0.5 2.43639 0.5 3.31579V18.7895C0.5 19.6689 0.849341 20.5123 1.47117 21.1341C2.093 21.7559 2.93639 22.1053 3.81579 22.1053H10.4474C10.7405 22.1053 11.0216 21.9888 11.2289 21.7815C11.4362 21.5743 11.5526 21.2931 11.5526 21C11.5526 20.7069 11.4362 20.4257 11.2289 20.2185C11.0216 20.0112 10.7405 19.8947 10.4474 19.8947H3.81579C3.52266 19.8947 3.24153 19.7783 3.03425 19.571C2.82697 19.3637 2.71053 19.0826 2.71053 18.7895V3.31579C2.71053 3.02266 2.82697 2.74153 3.03425 2.53425C3.24153 2.32697 3.52266 2.21053 3.81579 2.21053H9.3421V5.52632C9.3421 6.40572 9.69145 7.2491 10.3133 7.87093C10.9351 8.49276 11.7785 8.8421 12.6579 8.8421H17.0789C17.2972 8.84102 17.5102 8.77536 17.6911 8.65341C17.8721 8.53147 18.0129 8.35868 18.0958 8.15684V8.15684ZM12.6579 6.63158C12.3648 6.63158 12.0836 6.51513 11.8764 6.30785C11.6691 6.10058 11.5526 5.81945 11.5526 5.52632V3.76895L14.4153 6.63158H12.6579ZM20.3947 11.0526H14.8684C14.5753 11.0526 14.2942 11.1691 14.0869 11.3764C13.8796 11.5836 13.7632 11.8648 13.7632 12.1579V21C13.7637 21.1999 13.8185 21.396 13.9216 21.5673C14.0248 21.7386 14.1725 21.8787 14.3489 21.9726C14.5218 22.0614 14.715 22.103 14.909 22.0933C15.103 22.0836 15.2911 22.0229 15.4542 21.9174L17.6316 20.4805L19.8421 21.9174C20.0072 22.0129 20.1942 22.064 20.385 22.0658C20.5757 22.0676 20.7637 22.02 20.9306 21.9277C21.0975 21.8353 21.2376 21.7014 21.3374 21.5388C21.4372 21.3762 21.4932 21.1906 21.5 21V12.1579C21.5 11.8648 21.3836 11.5836 21.1763 11.3764C20.969 11.1691 20.6879 11.0526 20.3947 11.0526ZM19.2895 18.9221L18.2505 18.2258C18.0678 18.1022 17.8522 18.0362 17.6316 18.0362C17.411 18.0362 17.1954 18.1022 17.0126 18.2258L15.9737 18.9221V13.2632H19.2895V18.9221Z" fill="black"/>
</svg>
