<svg width="25" height="25" viewBox="0 0 25 25" fill="none" xmlns="http://www.w3.org/2000/svg">
<path d="M12.0015 21.6027H3.60046C3.28216 21.6027 2.97689 21.4763 2.75182 21.2512C2.52675 21.0261 2.4003 20.7209 2.4003 20.4026V3.60046C2.4003 3.28216 2.52675 2.97689 2.75182 2.75182C2.97689 2.52675 3.28216 2.4003 3.60046 2.4003H9.60122V6.00076C9.60122 6.95566 9.98055 7.87145 10.6558 8.54667C11.331 9.22188 12.2468 9.60122 13.2017 9.60122H16.8021V10.8014C16.8021 11.1197 16.9286 11.4249 17.1536 11.65C17.3787 11.8751 17.684 12.0015 18.0023 12.0015C18.3206 12.0015 18.6258 11.8751 18.8509 11.65C19.076 11.4249 19.2024 11.1197 19.2024 10.8014V8.32905C19.1899 8.2188 19.1658 8.11018 19.1304 8.00501V7.897C19.0727 7.7736 18.9957 7.66017 18.9024 7.56096L11.7015 0.360046C11.6023 0.266693 11.4888 0.189721 11.3654 0.132017C11.3296 0.126928 11.2933 0.126928 11.2574 0.132017C11.1355 0.0620974 11.0009 0.0172152 10.8614 0H3.60046C2.64556 0 1.72977 0.379333 1.05455 1.05455C0.379333 1.72977 0 2.64556 0 3.60046V20.4026C0 21.3575 0.379333 22.2733 1.05455 22.9485C1.72977 23.6237 2.64556 24.003 3.60046 24.003H12.0015C12.3198 24.003 12.6251 23.8766 12.8502 23.6515C13.0752 23.4265 13.2017 23.1212 13.2017 22.8029C13.2017 22.4846 13.0752 22.1793 12.8502 21.9543C12.6251 21.7292 12.3198 21.6027 12.0015 21.6027ZM12.0015 4.09252L15.1099 7.20091H13.2017C12.8834 7.20091 12.5781 7.07447 12.353 6.8494C12.128 6.62432 12.0015 6.31906 12.0015 6.00076V4.09252ZM6.00076 7.20091C5.68246 7.20091 5.3772 7.32736 5.15212 7.55243C4.92705 7.7775 4.80061 8.08276 4.80061 8.40106C4.80061 8.71936 4.92705 9.02463 5.15212 9.2497C5.3772 9.47477 5.68246 9.60122 6.00076 9.60122H7.20091C7.51921 9.60122 7.82448 9.47477 8.04955 9.2497C8.27462 9.02463 8.40106 8.71936 8.40106 8.40106C8.40106 8.08276 8.27462 7.7775 8.04955 7.55243C7.82448 7.32736 7.51921 7.20091 7.20091 7.20091H6.00076ZM23.655 21.9508L22.2508 20.5586C22.6996 19.7752 22.8793 18.8663 22.7622 17.9711C22.6452 17.0758 22.2379 16.2436 21.6027 15.602C21.0183 14.9967 20.2651 14.5815 19.4413 14.4104C18.6175 14.2393 17.7613 14.3203 16.9841 14.6428C16.207 14.9653 15.545 15.5144 15.0844 16.2185C14.6238 16.9226 14.386 17.7491 14.4018 18.5904C14.3977 19.3143 14.5829 20.0267 14.939 20.6569C15.2952 21.2872 15.8099 21.8134 16.4322 22.1834C17.0544 22.5533 17.7626 22.7542 18.4864 22.766C19.2102 22.7778 19.9246 22.6002 20.5586 22.2508L21.9508 23.655C22.0624 23.7675 22.1951 23.8568 22.3413 23.9177C22.4876 23.9786 22.6445 24.01 22.8029 24.01C22.9613 24.01 23.1182 23.9786 23.2644 23.9177C23.4107 23.8568 23.5434 23.7675 23.655 23.655C23.7675 23.5434 23.8568 23.4107 23.9177 23.2644C23.9786 23.1182 24.01 22.9613 24.01 22.8029C24.01 22.6445 23.9786 22.4876 23.9177 22.3413C23.8568 22.1951 23.7675 22.0624 23.655 21.9508V21.9508ZM19.8505 19.8505C19.5077 20.1729 19.0549 20.3523 18.5844 20.3523C18.1138 20.3523 17.661 20.1729 17.3182 19.8505C16.9878 19.5142 16.8025 19.0618 16.8021 18.5904C16.7996 18.3536 16.8452 18.1189 16.9359 17.9002C17.0267 17.6816 17.1608 17.4836 17.3302 17.3182C17.6502 17 18.0793 16.8154 18.5303 16.8021C18.773 16.7872 19.0161 16.8226 19.2444 16.9061C19.4727 16.9896 19.6813 17.1193 19.8571 17.2872C20.0329 17.4551 20.1721 17.6576 20.266 17.8818C20.3598 18.1061 20.4063 18.3473 20.4026 18.5904C20.3927 19.0669 20.1941 19.5201 19.8505 19.8505V19.8505ZM13.2017 12.0015H6.00076C5.68246 12.0015 5.3772 12.128 5.15212 12.353C4.92705 12.5781 4.80061 12.8834 4.80061 13.2017C4.80061 13.52 4.92705 13.8252 5.15212 14.0503C5.3772 14.2754 5.68246 14.4018 6.00076 14.4018H13.2017C13.52 14.4018 13.8252 14.2754 14.0503 14.0503C14.2754 13.8252 14.4018 13.52 14.4018 13.2017C14.4018 12.8834 14.2754 12.5781 14.0503 12.353C13.8252 12.128 13.52 12.0015 13.2017 12.0015ZM10.8014 19.2024C11.1197 19.2024 11.4249 19.076 11.65 18.8509C11.8751 18.6258 12.0015 18.3206 12.0015 18.0023C12.0015 17.684 11.8751 17.3787 11.65 17.1536C11.4249 16.9286 11.1197 16.8021 10.8014 16.8021H6.00076C5.68246 16.8021 5.3772 16.9286 5.15212 17.1536C4.92705 17.3787 4.80061 17.684 4.80061 18.0023C4.80061 18.3206 4.92705 18.6258 5.15212 18.8509C5.3772 19.076 5.68246 19.2024 6.00076 19.2024H10.8014Z" fill="black"/>
</svg>
