<svg width="22" height="20" viewBox="0 0 22 20" fill="none" xmlns="http://www.w3.org/2000/svg">
<path d="M20.9 8.2H19.8V7.1C19.8 6.80826 19.6841 6.52847 19.4778 6.32218C19.2715 6.11589 18.9917 6 18.7 6C18.4083 6 18.1285 6.11589 17.9222 6.32218C17.7159 6.52847 17.6 6.80826 17.6 7.1V8.2H16.5C16.2083 8.2 15.9285 8.31589 15.7222 8.52218C15.5159 8.72847 15.4 9.00826 15.4 9.3C15.4 9.59174 15.5159 9.87153 15.7222 10.0778C15.9285 10.2841 16.2083 10.4 16.5 10.4H17.6V11.5C17.6 11.7917 17.7159 12.0715 17.9222 12.2778C18.1285 12.4841 18.4083 12.6 18.7 12.6C18.9917 12.6 19.2715 12.4841 19.4778 12.2778C19.6841 12.0715 19.8 11.7917 19.8 11.5V10.4H20.9C21.1917 10.4 21.4715 10.2841 21.6778 10.0778C21.8841 9.87153 22 9.59174 22 9.3C22 9.00826 21.8841 8.72847 21.6778 8.52218C21.4715 8.31589 21.1917 8.2 20.9 8.2ZM12.43 10.092C13.0169 9.58395 13.4877 8.95557 13.8104 8.24953C14.133 7.54348 14.3 6.77628 14.3 6C14.3 4.54131 13.7205 3.14236 12.6891 2.11091C11.6576 1.07946 10.2587 0.5 8.8 0.5C7.34131 0.5 5.94236 1.07946 4.91091 2.11091C3.87946 3.14236 3.3 4.54131 3.3 6C3.29999 6.77628 3.46698 7.54348 3.78964 8.24953C4.11229 8.95557 4.58306 9.58395 5.17 10.092C3.63015 10.7893 2.32371 11.9153 1.40688 13.3354C0.490045 14.7555 0.00161904 16.4096 0 18.1C0 18.3917 0.115892 18.6715 0.322182 18.8778C0.528473 19.0841 0.808262 19.2 1.1 19.2C1.39174 19.2 1.67153 19.0841 1.87782 18.8778C2.08411 18.6715 2.2 18.3917 2.2 18.1C2.2 16.3496 2.89536 14.6708 4.1331 13.4331C5.37084 12.1954 7.04957 11.5 8.8 11.5C10.5504 11.5 12.2292 12.1954 13.4669 13.4331C14.7046 14.6708 15.4 16.3496 15.4 18.1C15.4 18.3917 15.5159 18.6715 15.7222 18.8778C15.9285 19.0841 16.2083 19.2 16.5 19.2C16.7917 19.2 17.0715 19.0841 17.2778 18.8778C17.4841 18.6715 17.6 18.3917 17.6 18.1C17.5984 16.4096 17.11 14.7555 16.1931 13.3354C15.2763 11.9153 13.9698 10.7893 12.43 10.092V10.092ZM8.8 9.3C8.14732 9.3 7.5093 9.10646 6.96662 8.74385C6.42394 8.38124 6.00097 7.86585 5.7512 7.26286C5.50143 6.65986 5.43608 5.99634 5.56341 5.3562C5.69074 4.71606 6.00503 4.12806 6.46655 3.66655C6.92806 3.20503 7.51606 2.89074 8.1562 2.76341C8.79634 2.63608 9.45986 2.70143 10.0629 2.9512C10.6659 3.20097 11.1812 3.62394 11.5438 4.16662C11.9065 4.7093 12.1 5.34732 12.1 6C12.1 6.87521 11.7523 7.71458 11.1335 8.33345C10.5146 8.95232 9.67521 9.3 8.8 9.3Z" fill="black"/>
</svg>
