<svg width="22" height="22" viewBox="0 0 22 22" fill="none" xmlns="http://www.w3.org/2000/svg">
<path d="M11 13.2C11.2176 13.2 11.4302 13.1355 11.6111 13.0146C11.792 12.8937 11.933 12.722 12.0163 12.521C12.0995 12.32 12.1213 12.0988 12.0789 11.8854C12.0364 11.672 11.9317 11.476 11.7778 11.3222C11.624 11.1683 11.428 11.0636 11.2146 11.0211C11.0012 10.9787 10.78 11.0005 10.579 11.0837C10.378 11.167 10.2063 11.308 10.0854 11.4889C9.96451 11.6698 9.9 11.8824 9.9 12.1C9.9 12.3917 10.0159 12.6715 10.2222 12.8778C10.4285 13.0841 10.7083 13.2 11 13.2ZM16.5 13.2C16.7176 13.2 16.9302 13.1355 17.1111 13.0146C17.292 12.8937 17.433 12.722 17.5163 12.521C17.5995 12.32 17.6213 12.0988 17.5789 11.8854C17.5364 11.672 17.4317 11.476 17.2778 11.3222C17.124 11.1683 16.928 11.0636 16.7146 11.0211C16.5012 10.9787 16.28 11.0005 16.079 11.0837C15.8781 11.167 15.7063 11.308 15.5854 11.4889C15.4645 11.6698 15.4 11.8824 15.4 12.1C15.4 12.3917 15.5159 12.6715 15.7222 12.8778C15.9285 13.0841 16.2083 13.2 16.5 13.2ZM11 17.6C11.2176 17.6 11.4302 17.5355 11.6111 17.4146C11.792 17.2937 11.933 17.122 12.0163 16.921C12.0995 16.72 12.1213 16.4988 12.0789 16.2854C12.0364 16.072 11.9317 15.876 11.7778 15.7222C11.624 15.5683 11.428 15.4636 11.2146 15.4211C11.0012 15.3787 10.78 15.4005 10.579 15.4837C10.378 15.567 10.2063 15.708 10.0854 15.8889C9.96451 16.0698 9.9 16.2824 9.9 16.5C9.9 16.7917 10.0159 17.0715 10.2222 17.2778C10.4285 17.4841 10.7083 17.6 11 17.6ZM16.5 17.6C16.7176 17.6 16.9302 17.5355 17.1111 17.4146C17.292 17.2937 17.433 17.122 17.5163 16.921C17.5995 16.72 17.6213 16.4988 17.5789 16.2854C17.5364 16.072 17.4317 15.876 17.2778 15.7222C17.124 15.5683 16.928 15.4636 16.7146 15.4211C16.5012 15.3787 16.28 15.4005 16.079 15.4837C15.8781 15.567 15.7063 15.708 15.5854 15.8889C15.4645 16.0698 15.4 16.2824 15.4 16.5C15.4 16.7917 15.5159 17.0715 15.7222 17.2778C15.9285 17.4841 16.2083 17.6 16.5 17.6ZM5.5 13.2C5.71756 13.2 5.93023 13.1355 6.11113 13.0146C6.29202 12.8937 6.43301 12.722 6.51627 12.521C6.59952 12.32 6.62131 12.0988 6.57886 11.8854C6.53642 11.672 6.43166 11.476 6.27782 11.3222C6.12398 11.1683 5.92798 11.0636 5.7146 11.0211C5.50122 10.9787 5.28005 11.0005 5.07905 11.0837C4.87805 11.167 4.70625 11.308 4.58538 11.4889C4.46451 11.6698 4.4 11.8824 4.4 12.1C4.4 12.3917 4.51589 12.6715 4.72218 12.8778C4.92847 13.0841 5.20826 13.2 5.5 13.2ZM18.7 2.2H17.6V1.1C17.6 0.808262 17.4841 0.528473 17.2778 0.322182C17.0715 0.115892 16.7917 0 16.5 0C16.2083 0 15.9285 0.115892 15.7222 0.322182C15.5159 0.528473 15.4 0.808262 15.4 1.1V2.2H6.6V1.1C6.6 0.808262 6.48411 0.528473 6.27782 0.322182C6.07153 0.115892 5.79174 0 5.5 0C5.20826 0 4.92847 0.115892 4.72218 0.322182C4.51589 0.528473 4.4 0.808262 4.4 1.1V2.2H3.3C2.42479 2.2 1.58542 2.54768 0.966548 3.16655C0.347678 3.78542 0 4.62479 0 5.5V18.7C0 19.5752 0.347678 20.4146 0.966548 21.0335C1.58542 21.6523 2.42479 22 3.3 22H18.7C19.5752 22 20.4146 21.6523 21.0335 21.0335C21.6523 20.4146 22 19.5752 22 18.7V5.5C22 4.62479 21.6523 3.78542 21.0335 3.16655C20.4146 2.54768 19.5752 2.2 18.7 2.2V2.2ZM19.8 18.7C19.8 18.9917 19.6841 19.2715 19.4778 19.4778C19.2715 19.6841 18.9917 19.8 18.7 19.8H3.3C3.00826 19.8 2.72847 19.6841 2.52218 19.4778C2.31589 19.2715 2.2 18.9917 2.2 18.7V8.8H19.8V18.7ZM19.8 6.6H2.2V5.5C2.2 5.20826 2.31589 4.92847 2.52218 4.72218C2.72847 4.51589 3.00826 4.4 3.3 4.4H18.7C18.9917 4.4 19.2715 4.51589 19.4778 4.72218C19.6841 4.92847 19.8 5.20826 19.8 5.5V6.6ZM5.5 17.6C5.71756 17.6 5.93023 17.5355 6.11113 17.4146C6.29202 17.2937 6.43301 17.122 6.51627 16.921C6.59952 16.72 6.62131 16.4988 6.57886 16.2854C6.53642 16.072 6.43166 15.876 6.27782 15.7222C6.12398 15.5683 5.92798 15.4636 5.7146 15.4211C5.50122 15.3787 5.28005 15.4005 5.07905 15.4837C4.87805 15.567 4.70625 15.708 4.58538 15.8889C4.46451 16.0698 4.4 16.2824 4.4 16.5C4.4 16.7917 4.51589 17.0715 4.72218 17.2778C4.92847 17.4841 5.20826 17.6 5.5 17.6Z" fill="black"/>
</svg>
