<svg width="13" height="11" viewBox="0 0 13 11" fill="none" xmlns="http://www.w3.org/2000/svg">
<path d="M2.69715 1.33165C2.48342 1.11189 2.19114 0.986043 1.88461 0.981786C1.57809 0.977529 1.28243 1.09521 1.06267 1.30895C0.842916 1.52268 0.717067 1.81496 0.71281 2.12149C0.708553 2.42801 0.826236 2.72367 1.03997 2.94343L3.696 5.54271L1.03997 8.14199C0.933584 8.24751 0.849142 8.37304 0.791517 8.51136C0.733892 8.64968 0.704224 8.79804 0.704224 8.94788C0.704224 9.09772 0.733892 9.24608 0.791517 9.38439C0.849142 9.52271 0.933584 9.64825 1.03997 9.75377C1.14549 9.86016 1.27103 9.9446 1.40935 10.0022C1.54766 10.0598 1.69602 10.0895 1.84586 10.0895C1.9957 10.0895 2.14406 10.0598 2.28238 10.0022C2.4207 9.9446 2.54623 9.86016 2.65175 9.75377L6.05692 6.3486C6.16331 6.24308 6.24775 6.11754 6.30538 5.97922C6.363 5.84091 6.39267 5.69255 6.39267 5.54271C6.39267 5.39287 6.363 5.24451 6.30538 5.10619C6.24775 4.96787 6.16331 4.84234 6.05692 4.73682L2.69715 1.33165ZM12.3451 4.73682L8.93997 1.33165C8.72623 1.11791 8.43634 0.997838 8.13408 0.997838C7.83181 0.997838 7.54192 1.11791 7.32819 1.33165C7.11445 1.54538 6.99437 1.83527 6.99437 2.13754C6.99437 2.43981 7.11445 2.72969 7.32819 2.94343L9.93882 5.54271L7.32819 8.14199C7.2218 8.24751 7.13736 8.37304 7.07973 8.51136C7.02211 8.64968 6.99244 8.79804 6.99244 8.94788C6.99244 9.09772 7.02211 9.24608 7.07973 9.38439C7.13736 9.52271 7.2218 9.64825 7.32819 9.75377C7.4337 9.86016 7.55924 9.9446 7.69756 10.0022C7.83588 10.0598 7.98423 10.0895 8.13408 10.0895C8.28392 10.0895 8.43227 10.0598 8.57059 10.0022C8.70891 9.9446 8.83445 9.86016 8.93997 9.75377L12.3451 6.3486C12.4545 6.24611 12.5426 6.12296 12.6041 5.98626C12.6657 5.84957 12.6996 5.70203 12.7038 5.55217C12.708 5.40231 12.6825 5.2531 12.6287 5.11316C12.575 4.97321 12.494 4.8453 12.3905 4.73682H12.3451Z" fill="black"/>
</svg>
