<svg width="87" height="90" viewBox="0 0 87 90" fill="none" xmlns="http://www.w3.org/2000/svg">
<path d="M73.4168 73.8202C81.7772 66.1311 86.4528 55.0229 86.4528 42.6734C86.4528 19.4656 69.941 0.660378 43.5283 0.660378C17.1156 0.660378 0.603775 19.4734 0.603775 42.6734C0.603775 65.8813 17.1156 84.6865 43.5283 84.6865C49.4812 84.6865 54.9232 83.7263 59.7924 81.9777L64.4139 88.6442C64.6058 88.9222 64.8792 89.1326 65.1957 89.246C65.5122 89.3594 65.856 89.3701 66.1788 89.2765L78.9594 85.5686C79.4549 85.4203 79.8574 85.0456 80.0354 84.546C80.2057 84.0542 80.1361 83.5077 79.8342 83.0706L73.4168 73.8202ZM43.5283 64.4996C29.811 64.4996 21.2261 54.7262 21.2261 42.6734C21.2261 30.6206 29.8033 20.8473 43.5283 20.8473C57.2533 20.8473 65.8305 30.6206 65.8305 42.6734C65.8305 47.8646 64.2281 52.6342 61.3251 56.3811L55.7051 48.2783C55.5126 48.001 55.2391 47.791 54.9228 47.6777C54.6065 47.5644 54.263 47.5533 53.9401 47.646L41.1518 51.3539C40.6563 51.5023 40.2538 51.877 40.0758 52.3766C39.9055 52.8683 39.9751 53.4148 40.277 53.8519L47.4531 64.1952C46.199 64.3825 44.8985 64.4996 43.5283 64.4996Z" fill="#6F2DA8"/>
</svg>
