<svg width="18" height="22" viewBox="0 0 18 22" fill="none" xmlns="http://www.w3.org/2000/svg">
<path d="M0 11.25C0 11.5484 0.118527 11.8345 0.329505 12.0455C0.540484 12.2565 0.826631 12.375 1.125 12.375H9.66375L7.07625 14.9512C6.97081 15.0558 6.88711 15.1803 6.83 15.3174C6.77288 15.4544 6.74348 15.6015 6.74348 15.75C6.74348 15.8985 6.77288 16.0456 6.83 16.1826C6.88711 16.3197 6.97081 16.4442 7.07625 16.5487C7.18083 16.6542 7.30526 16.7379 7.44235 16.795C7.57944 16.8521 7.72649 16.8815 7.875 16.8815C8.02351 16.8815 8.17056 16.8521 8.30765 16.795C8.44474 16.7379 8.56917 16.6542 8.67375 16.5487L13.1738 12.0488C13.2762 11.9418 13.3565 11.8156 13.41 11.6775C13.5225 11.4036 13.5225 11.0964 13.41 10.8225C13.3565 10.6844 13.2762 10.5582 13.1738 10.4512L8.67375 5.95125C8.56886 5.84636 8.44433 5.76315 8.30728 5.70638C8.17023 5.64962 8.02334 5.6204 7.875 5.6204C7.72666 5.6204 7.57977 5.64962 7.44272 5.70638C7.30567 5.76315 7.18114 5.84636 7.07625 5.95125C6.97136 6.05614 6.88815 6.18067 6.83138 6.31772C6.77461 6.45477 6.7454 6.60166 6.7454 6.75C6.7454 6.89834 6.77461 7.04523 6.83138 7.18228C6.88815 7.31933 6.97136 7.44386 7.07625 7.54875L9.66375 10.125H1.125C0.826631 10.125 0.540484 10.2435 0.329505 10.4545C0.118527 10.6655 0 10.9516 0 11.25V11.25ZM14.625 0H3.375C2.47989 0 1.62145 0.355579 0.988515 0.988515C0.355579 1.62145 0 2.47989 0 3.375V6.75C0 7.04837 0.118527 7.33452 0.329505 7.54549C0.540484 7.75647 0.826631 7.875 1.125 7.875C1.42337 7.875 1.70952 7.75647 1.92049 7.54549C2.13147 7.33452 2.25 7.04837 2.25 6.75V3.375C2.25 3.07663 2.36853 2.79048 2.57951 2.57951C2.79048 2.36853 3.07663 2.25 3.375 2.25H14.625C14.9234 2.25 15.2095 2.36853 15.4205 2.57951C15.6315 2.79048 15.75 3.07663 15.75 3.375V19.125C15.75 19.4234 15.6315 19.7095 15.4205 19.9205C15.2095 20.1315 14.9234 20.25 14.625 20.25H3.375C3.07663 20.25 2.79048 20.1315 2.57951 19.9205C2.36853 19.7095 2.25 19.4234 2.25 19.125V15.75C2.25 15.4516 2.13147 15.1655 1.92049 14.9545C1.70952 14.7435 1.42337 14.625 1.125 14.625C0.826631 14.625 0.540484 14.7435 0.329505 14.9545C0.118527 15.1655 0 15.4516 0 15.75V19.125C0 20.0201 0.355579 20.8786 0.988515 21.5115C1.62145 22.1444 2.47989 22.5 3.375 22.5H14.625C15.5201 22.5 16.3786 22.1444 17.0115 21.5115C17.6444 20.8786 18 20.0201 18 19.125V3.375C18 2.47989 17.6444 1.62145 17.0115 0.988515C16.3786 0.355579 15.5201 0 14.625 0Z" fill="black"/>
</svg>
