<svg width="100" height="100" viewBox="0 0 100 100" fill="none" xmlns="http://www.w3.org/2000/svg">
<path d="M79.4168 78.8202C87.7772 71.1311 92.4528 60.0229 92.4528 47.6734C92.4528 24.4655 75.941 5.66037 49.5283 5.66037C23.1156 5.66037 6.60376 24.4734 6.60376 47.6734C6.60376 70.8813 23.1156 89.6865 49.5283 89.6865C55.4812 89.6865 60.9232 88.7263 65.7924 86.9777L70.4138 93.6442C70.6058 93.9222 70.8792 94.1326 71.1957 94.246C71.5122 94.3594 71.856 94.37 72.1788 94.2765L84.9594 90.5686C85.4548 90.4203 85.8574 90.0456 86.0354 89.546C86.2057 89.0542 86.1361 88.5077 85.8342 88.0706L79.4168 78.8202ZM49.5283 69.4996C35.811 69.4996 27.2261 59.7262 27.2261 47.6734C27.2261 35.6206 35.8033 25.8472 49.5283 25.8472C63.2533 25.8472 71.8305 35.6206 71.8305 47.6734C71.8305 52.8646 70.2281 57.6342 67.3251 61.3811L61.7051 53.2783C61.5126 53.001 61.2391 52.791 60.9228 52.6777C60.6065 52.5644 60.263 52.5533 59.9401 52.646L47.1518 56.3539C46.6563 56.5023 46.2538 56.877 46.0757 57.3765C45.9054 57.8683 45.9751 58.4148 46.277 58.8519L53.453 69.1952C52.199 69.3825 50.8985 69.4996 49.5283 69.4996Z" fill="#C7C7CC"/>
</svg>
