<svg width="22" height="22" viewBox="0 0 22 22" fill="none" xmlns="http://www.w3.org/2000/svg">
<path d="M14.091 11.308C14.7873 10.5603 15.1795 9.57965 15.191 8.558C15.191 7.45523 14.7529 6.39763 13.9732 5.61785C13.1934 4.83807 12.1358 4.4 11.033 4.4C9.93023 4.4 8.87263 4.83807 8.09285 5.61785C7.31307 6.39763 6.875 7.45523 6.875 8.558C6.88648 9.57965 7.27872 10.5603 7.975 11.308C7.00552 11.7908 6.17124 12.5069 5.54721 13.3921C4.92317 14.2773 4.52895 15.3037 4.4 16.379C4.36791 16.6707 4.45302 16.9633 4.63662 17.1923C4.82022 17.4212 5.08726 17.5679 5.379 17.6C5.67074 17.6321 5.96328 17.547 6.19226 17.3634C6.42124 17.1798 6.56791 16.9127 6.6 16.621C6.73127 15.5553 7.24773 14.5743 8.0521 13.8629C8.85646 13.1515 9.8932 12.7589 10.967 12.7589C12.0408 12.7589 13.0775 13.1515 13.8819 13.8629C14.6863 14.5743 15.2027 15.5553 15.334 16.621C15.3646 16.9031 15.503 17.1624 15.7203 17.3448C15.9375 17.5273 16.2169 17.6187 16.5 17.6H16.621C16.9094 17.5668 17.1729 17.421 17.3542 17.1944C17.5355 16.9677 17.6199 16.6786 17.589 16.39C17.4696 15.3203 17.0878 14.2967 16.4776 13.4101C15.8673 12.5236 15.0475 11.8015 14.091 11.308V11.308ZM11 10.516C10.6127 10.516 10.2342 10.4012 9.91219 10.186C9.5902 9.97087 9.33924 9.66507 9.19104 9.30729C9.04285 8.94952 9.00407 8.55583 9.07962 8.17601C9.15517 7.7962 9.34165 7.44732 9.61549 7.17349C9.88932 6.89965 10.2382 6.71317 10.618 6.63762C10.9978 6.56207 11.3915 6.60085 11.7493 6.74904C12.1071 6.89724 12.4129 7.1482 12.628 7.47019C12.8432 7.79219 12.958 8.17074 12.958 8.558C12.958 9.07729 12.7517 9.57532 12.3845 9.94252C12.0173 10.3097 11.5193 10.516 11 10.516V10.516ZM18.7 0H3.3C2.42479 0 1.58542 0.347678 0.966548 0.966548C0.347678 1.58542 0 2.42479 0 3.3V18.7C0 19.5752 0.347678 20.4146 0.966548 21.0335C1.58542 21.6523 2.42479 22 3.3 22H18.7C19.5752 22 20.4146 21.6523 21.0335 21.0335C21.6523 20.4146 22 19.5752 22 18.7V3.3C22 2.42479 21.6523 1.58542 21.0335 0.966548C20.4146 0.347678 19.5752 0 18.7 0ZM19.8 18.7C19.8 18.9917 19.6841 19.2715 19.4778 19.4778C19.2715 19.6841 18.9917 19.8 18.7 19.8H3.3C3.00826 19.8 2.72847 19.6841 2.52218 19.4778C2.31589 19.2715 2.2 18.9917 2.2 18.7V3.3C2.2 3.00826 2.31589 2.72847 2.52218 2.52218C2.72847 2.31589 3.00826 2.2 3.3 2.2H18.7C18.9917 2.2 19.2715 2.31589 19.4778 2.52218C19.6841 2.72847 19.8 3.00826 19.8 3.3V18.7Z" fill="black"/>
</svg>
