<svg width="24" height="24" viewBox="0 0 24 24" fill="none" xmlns="http://www.w3.org/2000/svg">
<path fill-rule="evenodd" clip-rule="evenodd" d="M15.6363 9.27272C15.6363 10.2371 15.2531 11.1621 14.5712 11.844C13.8892 12.526 12.9643 12.9091 11.9999 12.9091C11.0355 12.9091 10.1105 12.526 9.42859 11.844C8.74664 11.1621 8.36353 10.2371 8.36353 9.27272C8.36353 8.30829 8.74664 7.38337 9.42859 6.70142C10.1105 6.01947 11.0355 5.63635 11.9999 5.63635C12.9643 5.63635 13.8892 6.01947 14.5712 6.70142C15.2531 7.38337 15.6363 8.30829 15.6363 9.27272ZM13.8181 9.27272C13.8181 9.75493 13.6265 10.2174 13.2855 10.5584C12.9446 10.8993 12.4821 11.0909 11.9999 11.0909C11.5177 11.0909 11.0552 10.8993 10.7142 10.5584C10.3733 10.2174 10.1817 9.75493 10.1817 9.27272C10.1817 8.7905 10.3733 8.32804 10.7142 7.98707C11.0552 7.64609 11.5177 7.45453 11.9999 7.45453C12.4821 7.45453 12.9446 7.64609 13.2855 7.98707C13.6265 8.32804 13.8181 8.7905 13.8181 9.27272Z" fill="black"/>
<path fill-rule="evenodd" clip-rule="evenodd" d="M12 2C6.47727 2 2 6.47727 2 12C2 17.5227 6.47727 22 12 22C17.5227 22 22 17.5227 22 12C22 6.47727 17.5227 2 12 2ZM3.81818 12C3.81818 13.9 4.46636 15.6491 5.55273 17.0382C6.31566 16.0363 7.29991 15.2243 8.42858 14.6657C9.55724 14.1072 10.7998 13.8171 12.0591 13.8182C13.3021 13.817 14.529 14.0996 15.6463 14.6443C16.7636 15.1891 17.7418 15.9817 18.5064 16.9618C19.294 15.9287 19.8244 14.7229 20.0535 13.4442C20.2827 12.1654 20.204 10.8505 19.8241 9.60817C19.4441 8.36585 18.7738 7.23186 17.8686 6.30003C16.9634 5.36821 15.8493 4.66533 14.6185 4.24955C13.3877 3.83378 12.0756 3.71707 10.7908 3.90907C9.50593 4.10107 8.28526 4.59627 7.22979 5.35369C6.17432 6.11111 5.31437 7.10897 4.72112 8.26472C4.12786 9.42047 3.81835 10.7009 3.81818 12ZM12 20.1818C10.1218 20.1846 8.30024 19.5385 6.84364 18.3527C7.42994 17.5134 8.21031 16.8281 9.11836 16.3552C10.0264 15.8822 11.0353 15.6356 12.0591 15.6364C13.0701 15.6356 14.0668 15.876 14.9663 16.3377C15.8658 16.7993 16.6422 17.469 17.2309 18.2909C15.763 19.5152 13.9114 20.1845 12 20.1818Z" fill="black"/>
</svg>
