<svg width="22" height="22" viewBox="0 0 22 22" fill="none" xmlns="http://www.w3.org/2000/svg">
<path d="M4.01923 0C2.95326 0 1.93096 0.423454 1.17721 1.17721C0.423454 1.93096 0 2.95326 0 4.01923V6.85723C0 7.13775 0.111435 7.40678 0.309791 7.60513C0.508147 7.80349 0.777175 7.91492 1.05769 7.91492C1.33821 7.91492 1.60724 7.80349 1.80559 7.60513C2.00395 7.40678 2.11538 7.13775 2.11538 6.85723V4.01923C2.11538 3.5143 2.31597 3.03005 2.67301 2.67301C3.03005 2.31597 3.5143 2.11538 4.01923 2.11538H6.85723C7.13775 2.11538 7.40678 2.00395 7.60513 1.80559C7.80349 1.60724 7.91492 1.33821 7.91492 1.05769C7.91492 0.777175 7.80349 0.508147 7.60513 0.309791C7.40678 0.111435 7.13775 0 6.85723 0H4.01923ZM15.1428 0C14.8623 0 14.5932 0.111435 14.3949 0.309791C14.1965 0.508147 14.0851 0.777175 14.0851 1.05769C14.0851 1.33821 14.1965 1.60724 14.3949 1.80559C14.5932 2.00395 14.8623 2.11538 15.1428 2.11538H17.9808C18.4857 2.11538 18.97 2.31597 19.327 2.67301C19.684 3.03005 19.8846 3.5143 19.8846 4.01923V6.85723C19.8846 7.13775 19.996 7.40678 20.1944 7.60513C20.3928 7.80349 20.6618 7.91492 20.9423 7.91492C21.2228 7.91492 21.4919 7.80349 21.6902 7.60513C21.8886 7.40678 22 7.13775 22 6.85723V4.01923C22 2.95326 21.5765 1.93096 20.8228 1.17721C20.069 0.423454 19.0467 0 17.9808 0H15.1428ZM2.11538 15.1428C2.11538 14.8623 2.00395 14.5932 1.80559 14.3949C1.60724 14.1965 1.33821 14.0851 1.05769 14.0851C0.777175 14.0851 0.508147 14.1965 0.309791 14.3949C0.111435 14.5932 0 14.8623 0 15.1428V17.9808C0 19.0467 0.423454 20.069 1.17721 20.8228C1.93096 21.5765 2.95326 22 4.01923 22H6.85723C7.13775 22 7.40678 21.8886 7.60513 21.6902C7.80349 21.4919 7.91492 21.2228 7.91492 20.9423C7.91492 20.6618 7.80349 20.3928 7.60513 20.1944C7.40678 19.996 7.13775 19.8846 6.85723 19.8846H4.01923C3.5143 19.8846 3.03005 19.684 2.67301 19.327C2.31597 18.97 2.11538 18.4857 2.11538 17.9808V15.1428ZM22 15.1428C22 14.8623 21.8886 14.5932 21.6902 14.3949C21.4919 14.1965 21.2228 14.0851 20.9423 14.0851C20.6618 14.0851 20.3928 14.1965 20.1944 14.3949C19.996 14.5932 19.8846 14.8623 19.8846 15.1428V17.9808C19.8846 18.4857 19.684 18.97 19.327 19.327C18.97 19.684 18.4857 19.8846 17.9808 19.8846H15.1428C14.8623 19.8846 14.5932 19.996 14.3949 20.1944C14.1965 20.3928 14.0851 20.6618 14.0851 20.9423C14.0851 21.2228 14.1965 21.4919 14.3949 21.6902C14.5932 21.8886 14.8623 22 15.1428 22H17.9808C19.0467 22 20.069 21.5765 20.8228 20.8228C21.5765 20.069 22 19.0467 22 17.9808V15.1428ZM5.5 9.94231C5.21948 9.94231 4.95045 10.0537 4.7521 10.2521C4.55374 10.4505 4.44231 10.7195 4.44231 11C4.44231 11.2805 4.55374 11.5495 4.7521 11.7479C4.95045 11.9463 5.21948 12.0577 5.5 12.0577H16.5C16.7805 12.0577 17.0495 11.9463 17.2479 11.7479C17.4463 11.5495 17.5577 11.2805 17.5577 11C17.5577 10.7195 17.4463 10.4505 17.2479 10.2521C17.0495 10.0537 16.7805 9.94231 16.5 9.94231H5.5Z" fill="black"/>
</svg>
