<svg width="20" height="23" viewBox="0 0 20 23" fill="none" xmlns="http://www.w3.org/2000/svg">
<path d="M19.4927 7.17596C19.4863 7.14647 19.4863 7.11596 19.4927 7.08647C19.4872 7.06065 19.4872 7.03399 19.4927 7.00817V6.9075L19.4255 6.73971C19.3983 6.69392 19.3643 6.65245 19.3249 6.61666L19.2242 6.52717H19.1683L14.761 3.74188L10.5998 1.16911C10.5036 1.09275 10.3934 1.03577 10.2755 1.00132H10.186C10.086 0.984636 9.98393 0.984636 9.88394 1.00132H9.77209C9.64215 1.03006 9.51757 1.07914 9.40295 1.14674L1.04706 6.3482L0.946388 6.4265L0.845714 6.51599L0.733855 6.59429L0.677926 6.6614L0.61081 6.82919V6.99698C0.599945 7.07116 0.599945 7.14652 0.61081 7.2207V16.986C0.610429 17.1761 0.658502 17.3632 0.75049 17.5295C0.842478 17.6959 0.975345 17.8361 1.13655 17.9368L9.526 23.1271L9.69378 23.1942H9.78327C9.97252 23.2542 10.1757 23.2542 10.3649 23.1942H10.4544L10.6222 23.1271L18.9445 18.0151C19.1058 17.9144 19.2386 17.7742 19.3306 17.6078C19.4226 17.4415 19.4707 17.2544 19.4703 17.0643V7.299C19.4703 7.299 19.4927 7.2207 19.4927 7.17596ZM9.9958 3.42867L11.9869 4.65912L5.73397 8.52945L3.73168 7.299L9.9958 3.42867ZM8.87721 20.2076L2.72495 16.4491V9.30128L8.87721 13.1045V20.2076ZM9.9958 11.1358L7.85929 9.84939L14.1122 5.96788L16.2599 7.299L9.9958 11.1358ZM17.2667 16.4155L11.1144 20.2411V13.1045L17.2667 9.30128V16.4155Z" fill="black"/>
</svg>
