<svg width="22" height="22" viewBox="0 0 22 22" fill="none" xmlns="http://www.w3.org/2000/svg">
<path d="M14.3 9.9H12.1V5.5C12.1 5.20826 11.9841 4.92847 11.7778 4.72218C11.5715 4.51589 11.2917 4.4 11 4.4C10.7083 4.4 10.4285 4.51589 10.2222 4.72218C10.0159 4.92847 9.9 5.20826 9.9 5.5V11C9.9 11.2917 10.0159 11.5715 10.2222 11.7778C10.4285 11.9841 10.7083 12.1 11 12.1H14.3C14.5917 12.1 14.8715 11.9841 15.0778 11.7778C15.2841 11.5715 15.4 11.2917 15.4 11C15.4 10.7083 15.2841 10.4285 15.0778 10.2222C14.8715 10.0159 14.5917 9.9 14.3 9.9ZM11 0C8.82441 0 6.69767 0.645139 4.88873 1.85383C3.07979 3.06253 1.66989 4.78049 0.83733 6.79048C0.00476612 8.80047 -0.213071 11.0122 0.211367 13.146C0.635804 15.2798 1.68345 17.2398 3.22183 18.7782C4.76021 20.3165 6.72022 21.3642 8.85401 21.7886C10.9878 22.2131 13.1995 21.9952 15.2095 21.1627C17.2195 20.3301 18.9375 18.9202 20.1462 17.1113C21.3549 15.3023 22 13.1756 22 11C21.9968 8.0836 20.8368 5.28757 18.7746 3.22536C16.7124 1.16316 13.9164 0.00320276 11 0V0ZM11 19.8C9.25953 19.8 7.55814 19.2839 6.11099 18.3169C4.66383 17.35 3.53592 15.9756 2.86986 14.3676C2.20381 12.7596 2.02954 10.9902 2.36909 9.2832C2.70864 7.57617 3.54676 6.00816 4.77746 4.77746C6.00817 3.54676 7.57618 2.70864 9.28321 2.36909C10.9902 2.02954 12.7596 2.20381 14.3676 2.86986C15.9756 3.53591 17.35 4.66383 18.3169 6.11098C19.2839 7.55813 19.8 9.25952 19.8 11C19.7971 13.333 18.869 15.5696 17.2193 17.2193C15.5696 18.869 13.333 19.7971 11 19.8Z" fill="black"/>
</svg>
