<svg width="6" height="22" viewBox="0 0 6 22" fill="none" xmlns="http://www.w3.org/2000/svg">
<path d="M3 4.88889C3.59334 4.88889 4.17336 4.74553 4.66671 4.47693C5.16006 4.20833 5.54457 3.82656 5.77164 3.37989C5.9987 2.93323 6.05811 2.44173 5.94235 1.96756C5.8266 1.49338 5.54088 1.05782 5.12132 0.715962C4.70176 0.3741 4.16721 0.14129 3.58527 0.0469704C3.00333 -0.047349 2.40013 0.00105913 1.85195 0.186073C1.30377 0.371088 0.835237 0.684398 0.505593 1.08638C0.175949 1.48837 1.61668e-06 1.96098 1.61668e-06 2.44445C1.61668e-06 3.09275 0.316073 3.71451 0.878681 4.17293C1.44129 4.63135 2.20435 4.88889 3 4.88889ZM3 17.1111C2.40666 17.1111 1.82664 17.2545 1.33329 17.5231C0.839943 17.7917 0.455425 18.1734 0.228363 18.6201C0.00129984 19.0668 -0.0581101 19.5583 0.0576455 20.0324C0.173401 20.5066 0.459124 20.9422 0.878681 21.284C1.29824 21.6259 1.83279 21.8587 2.41473 21.953C2.99667 22.0473 3.59987 21.9989 4.14805 21.8139C4.69623 21.6289 5.16476 21.3156 5.49441 20.9136C5.82405 20.5116 6 20.039 6 19.5556C6 18.9072 5.68393 18.2855 5.12132 17.8271C4.55871 17.3686 3.79565 17.1111 3 17.1111ZM3 8.55556C2.40666 8.55556 1.82664 8.69892 1.33329 8.96752C0.839943 9.23612 0.455425 9.61789 0.228363 10.0646C0.00129984 10.5112 -0.0581101 11.0027 0.0576455 11.4769C0.173401 11.9511 0.459124 12.3866 0.878681 12.7285C1.29824 13.0703 1.83279 13.3032 2.41473 13.3975C2.99667 13.4918 3.59987 13.4434 4.14805 13.2584C4.69623 13.0734 5.16476 12.76 5.49441 12.3581C5.82405 11.9561 6 11.4835 6 11C6 10.3517 5.68393 9.72994 5.12132 9.27152C4.55871 8.8131 3.79565 8.55556 3 8.55556Z" fill="black"/>
</svg>
