<svg width="22" height="20" viewBox="0 0 22 20" fill="none" xmlns="http://www.w3.org/2000/svg">
<path d="M12.4289 10.2459C13.0158 9.72968 13.4865 9.09122 13.8091 8.37385C14.1317 7.65647 14.2987 6.87697 14.2987 6.08824C14.2987 4.60614 13.7193 3.18475 12.6879 2.13676C11.6566 1.08876 10.2578 0.5 8.79921 0.5C7.34065 0.5 5.94183 1.08876 4.91047 2.13676C3.87911 3.18475 3.2997 4.60614 3.2997 6.08824C3.29969 6.87697 3.46667 7.65647 3.7893 8.37385C4.11192 9.09122 4.58265 9.72968 5.16953 10.2459C3.62983 10.9543 2.3235 12.0984 1.40675 13.5413C0.490001 14.9842 0.00161889 16.6649 0 18.3824C0 18.6788 0.115882 18.9631 0.322153 19.1726C0.528425 19.3822 0.808189 19.5 1.0999 19.5C1.39161 19.5 1.67138 19.3822 1.87765 19.1726C2.08392 18.9631 2.1998 18.6788 2.1998 18.3824C2.1998 16.6038 2.89509 14.8982 4.13272 13.6406C5.37035 12.383 7.04894 11.6765 8.79921 11.6765C10.5495 11.6765 12.2281 12.383 13.4657 13.6406C14.7033 14.8982 15.3986 16.6038 15.3986 18.3824C15.3986 18.6788 15.5145 18.9631 15.7208 19.1726C15.927 19.3822 16.2068 19.5 16.4985 19.5C16.7902 19.5 17.07 19.3822 17.2763 19.1726C17.4825 18.9631 17.5984 18.6788 17.5984 18.3824C17.5968 16.6649 17.1084 14.9842 16.1917 13.5413C15.2749 12.0984 13.9686 10.9543 12.4289 10.2459V10.2459ZM8.79921 9.44118C8.14659 9.44118 7.50862 9.24453 6.96599 8.8761C6.42336 8.50768 6.00043 7.98402 5.75068 7.37135C5.50093 6.75868 5.43559 6.08452 5.56291 5.43411C5.69023 4.7837 6.00449 4.18627 6.46596 3.71735C6.92744 3.24843 7.51539 2.92909 8.15547 2.79972C8.79555 2.67035 9.45901 2.73675 10.0619 2.99052C10.6649 3.2443 11.1802 3.67405 11.5428 4.22544C11.9054 4.77683 12.0989 5.42509 12.0989 6.08824C12.0989 6.97749 11.7513 7.83032 11.1324 8.45912C10.5136 9.08792 9.67434 9.44118 8.79921 9.44118ZM21.679 6.79235C21.5768 6.6876 21.4551 6.60445 21.3211 6.54771C21.1871 6.49097 21.0433 6.46175 20.8981 6.46175C20.7529 6.46175 20.6092 6.49097 20.4751 6.54771C20.3411 6.60445 20.2194 6.6876 20.1172 6.79235L17.9174 9.02765L17.2354 8.32353C17.1332 8.21877 17.0115 8.13563 16.8775 8.07889C16.7435 8.02214 16.5997 7.99293 16.4545 7.99293C16.3093 7.99293 16.1656 8.02214 16.0315 8.07889C15.8975 8.13563 15.7758 8.21877 15.6736 8.32353C15.4687 8.53293 15.3537 8.8162 15.3537 9.11147C15.3537 9.40674 15.4687 9.69001 15.6736 9.89941L17.1475 11.3971C17.3535 11.6052 17.6323 11.7221 17.9229 11.7221C18.2135 11.7221 18.4922 11.6052 18.6983 11.3971L21.635 8.41294C21.7461 8.3116 21.8357 8.18834 21.8984 8.05069C21.961 7.91304 21.9955 7.76386 21.9996 7.61225C22.0037 7.46064 21.9774 7.30976 21.9223 7.1688C21.8672 7.02785 21.7844 6.89977 21.679 6.79235V6.79235Z" fill="black"/>
</svg>
