<svg width="22" height="23" viewBox="0 0 22 23" fill="none" xmlns="http://www.w3.org/2000/svg">
<path d="M9.49336 4.86167C10.5857 4.60636 11.7251 4.63368 12.804 4.94104C13.8828 5.24841 14.8655 5.82569 15.6593 6.61836C16.4531 7.41103 17.0317 8.39294 17.3406 9.47137C17.6494 10.5498 17.6783 11.6892 17.4245 12.7819C17.3902 12.9227 17.384 13.069 17.4063 13.2123C17.4286 13.3555 17.4791 13.493 17.5547 13.6167C17.6304 13.7404 17.7298 13.8479 17.8471 13.933C17.9645 14.0182 18.0975 14.0793 18.2386 14.1129C18.3225 14.1237 18.4076 14.1237 18.4916 14.1129C18.7429 14.1202 18.9891 14.0412 19.1892 13.8891C19.3894 13.737 19.5314 13.5209 19.5916 13.2769C19.9343 11.8188 19.8991 10.2974 19.4895 8.8567C19.0798 7.41601 18.3093 6.10371 17.2507 5.04406C16.1922 3.98441 14.8807 3.21247 13.4404 2.80133C12.0001 2.39019 10.4788 2.35347 9.02035 2.69462C8.7286 2.76172 8.47546 2.94197 8.31662 3.19572C8.15777 3.44946 8.10623 3.75591 8.17333 4.04765C8.24043 4.3394 8.42068 4.59254 8.67442 4.75139C8.92816 4.91023 9.23461 4.96178 9.52636 4.89467L9.49336 4.86167ZM21.6816 20.9L16.9845 16.2029L1.88118 1.09959C1.77892 0.996482 1.65726 0.914647 1.52321 0.8588C1.38916 0.802953 1.24538 0.7742 1.10017 0.7742C0.954949 0.7742 0.811169 0.802953 0.677121 0.8588C0.543073 0.914647 0.421409 0.996482 0.319147 1.09959C0.114266 1.30569 -0.000732422 1.58449 -0.000732422 1.8751C-0.000732422 2.16572 0.114266 2.44452 0.319147 2.65062L3.85023 6.1817C2.63664 7.8755 2.06344 9.94497 2.23265 12.0218C2.40185 14.0986 3.30249 16.048 4.77425 17.523L10.2194 22.9681C10.3216 23.0712 10.4433 23.153 10.5773 23.2089C10.7114 23.2647 10.8552 23.2935 11.0004 23.2935C11.1456 23.2935 11.2894 23.2647 11.4234 23.2089C11.5575 23.153 11.6791 23.0712 11.7814 22.9681L16.1815 18.568L20.0976 22.4841C20.3033 22.6912 20.5828 22.8082 20.8747 22.8092C21.1666 22.8102 21.447 22.6953 21.6541 22.4896C21.8613 22.2839 21.9782 22.0044 21.9793 21.7124C21.9803 21.4205 21.8653 21.1402 21.6596 20.933L21.6816 20.9ZM11.1324 13.4639C10.8235 13.4836 10.514 13.438 10.224 13.3299C9.93397 13.2219 9.67001 13.0539 9.44936 12.8369C9.22839 12.6181 9.0563 12.355 8.94443 12.0649C8.83256 11.7748 8.78345 11.4643 8.80034 11.1538L11.1324 13.4639ZM11.0004 20.614L6.33629 15.9499C5.28068 14.8899 4.6165 13.5027 4.45261 12.0157C4.28873 10.5288 4.63486 9.03022 5.43427 7.76574L7.0513 9.38278C6.65684 10.2013 6.52543 11.1218 6.67512 12.018C6.82481 12.9142 7.24826 13.742 7.88732 14.3879C8.29535 14.7984 8.78035 15.1243 9.31455 15.347C9.84874 15.5698 10.4216 15.6849 11.0004 15.6859C11.6609 15.6829 12.3119 15.5286 12.9034 15.2349L14.6415 16.973L11.0004 20.614Z" fill="black"/>
</svg>
